<?xml version="1.0" encoding="UTF-8" standalone="no"?>
<!-- Created with Inkscape (http://www.inkscape.org/) -->

<svg
   xmlns:osb="http://www.openswatchbook.org/uri/2009/osb"
   xmlns:dc="http://purl.org/dc/elements/1.1/"
   xmlns:cc="http://creativecommons.org/ns#"
   xmlns:rdf="http://www.w3.org/1999/02/22-rdf-syntax-ns#"
   xmlns:svg="http://www.w3.org/2000/svg"
   xmlns="http://www.w3.org/2000/svg"
   xmlns:xlink="http://www.w3.org/1999/xlink"
   xmlns:sodipodi="http://sodipodi.sourceforge.net/DTD/sodipodi-0.dtd"
   xmlns:inkscape="http://www.inkscape.org/namespaces/inkscape"
   width="400"
   height="300"
   viewBox="0 0 400 400"
   version="1.1"
   id="svg8"
   inkscape:version="0.92.3 (2405546, 2018-03-11)"
   sodipodi:docname="logo.svg">
  <title
     id="title6076">logo</title>
  <defs
     id="defs2">
    <inkscape:perspective
       sodipodi:type="inkscape:persp3d"
       inkscape:vp_x="65.20089 : 87.912707 : 1"
       inkscape:vp_y="0 : 666.66667 : 0"
       inkscape:vp_z="146.76637 : 129.49009 : 1"
       inkscape:persp3d-origin="117.70089 : 54.912697 : 1"
       id="perspective6024" />
    <linearGradient
       id="linearGradient6004"
       osb:paint="solid">
      <stop
         style="stop-color:#000000;stop-opacity:1;"
         offset="0"
         id="stop6002" />
    </linearGradient>
    <linearGradient
       id="5000"
       osb:paint="gradient">
      <stop
         style="stop-color:#000000;stop-opacity:1;"
         offset="0"
         id="stop4532" />
      <stop
         style="stop-color:#000000;stop-opacity:0;"
         offset="1"
         id="stop4534" />
    </linearGradient>
    <linearGradient
       inkscape:collect="always"
       xlink:href="#linearGradient6004"
       id="linearGradient6006"
       x1="17.764877"
       y1="123.69791"
       x2="182.94048"
       y2="123.69791"
       gradientUnits="userSpaceOnUse"
       gradientTransform="matrix(0.9990769,0,0,1.2026265,-0.2853408,-21.851679)" />
    <linearGradient
       inkscape:collect="always"
       xlink:href="#linearGradient6004"
       id="linearGradient6066"
       gradientUnits="userSpaceOnUse"
       gradientTransform="matrix(2.3276903,0,0,2.8298092,-33.768095,-150.93366)"
       x1="17.764877"
       y1="123.69791"
       x2="182.94048"
       y2="123.69791" />
  </defs>
  <sodipodi:namedview
     id="base"
     pagecolor="#ffffff"
     bordercolor="#666666"
     borderopacity="1.0"
     inkscape:pageopacity="0.0"
     inkscape:pageshadow="2"
     inkscape:zoom="1.1754532"
     inkscape:cx="186.32114"
     inkscape:cy="171.90211"
     inkscape:document-units="mm"
     inkscape:current-layer="layer1"
     showgrid="false"
     inkscape:window-width="1366"
     inkscape:window-height="705"
     inkscape:window-x="-8"
     inkscape:window-y="-8"
     inkscape:window-maximized="1"
     showguides="true"
     inkscape:guide-bbox="true"
     inkscape:snap-text-baseline="false"
     inkscape:snap-grids="true"
     inkscape:snap-to-guides="false">
    <sodipodi:guide
       position="1.1339285,236.6131"
       orientation="1,0"
       id="guide3767"
       inkscape:locked="false" />
    <sodipodi:guide
       position="266.28027,401.54725"
       orientation="0,1"
       id="guide3769"
       inkscape:locked="false" />
    <sodipodi:guide
       position="205.24107,171.97917"
       orientation="1,0"
       id="guide3771"
       inkscape:locked="false" />
    <sodipodi:guide
       position="88.446427,100.54167"
       orientation="0,1"
       id="guide3773"
       inkscape:locked="false" />
  </sodipodi:namedview>
  <metadata
     id="metadata5">
    <rdf:RDF>
      <cc:Work
         rdf:about="">
        <dc:format>image/svg+xml</dc:format>
        <dc:type
           rdf:resource="http://purl.org/dc/dcmitype/StillImage" />
        <dc:title>logo</dc:title>
      </cc:Work>
    </rdf:RDF>
  </metadata>
  <g
     inkscape:label="Capa 1"
     inkscape:groupmode="layer"
     id="layer1">
    <ellipse
       style="fill:#ffb380;fill-opacity:1;stroke:#f15b0d;stroke-width:3.71346688;stroke-linecap:square;stroke-linejoin:round;stroke-miterlimit:4;stroke-dasharray:none;stroke-opacity:1;paint-order:normal"
       id="path6061"
       cx="202.44403"
       cy="199.17339"
       rx="156.31084"
       ry="140.07846" />
    <ellipse
       style="fill:url(#linearGradient6066);fill-opacity:1;stroke:#f15b0d;stroke-width:4.07046795;stroke-linecap:square;stroke-linejoin:round;stroke-miterlimit:4;stroke-dasharray:none;stroke-opacity:1;paint-order:normal;image-rendering:auto"
       id="path18"
       cx="199.82187"
       cy="199.10817"
       rx="192.23883"
       ry="80.754837" />
    <a
       id="a58"
       style="fill:#ffffff" />
    <path
       style="fill:#800000;fill-opacity:1;stroke:#f15b0d;stroke-width:3.71346688;stroke-linecap:square;stroke-linejoin:round;stroke-miterlimit:4;stroke-dasharray:none;stroke-opacity:1;paint-order:normal"
       id="path3794"
       d="m 39.858992,193.28268 c -0.184477,0.10824 -0.367914,0.21648 -0.553433,0.32354 -3.982294,2.27538 8.525215,-5.00935 3.888479,-2.27631 -0.386511,0.22824 -0.771804,0.4579 -1.157402,0.68731 -0.398563,0.23719 -0.796721,0.47485 -1.19508,0.7125 -3.752845,2.20455 -0.783407,0.46284 -8.881713,5.16536 -0.405781,0.23577 -1.623498,0.94191 -1.217309,0.70709 1.779784,-1.02945 3.547985,-2.07961 5.338122,-3.09046 0.359735,-0.20237 -0.703877,0.43389 -1.045697,0.66637 -0.31979,0.21648 -0.625456,0.45555 -0.938181,0.68355 -1.721561,1.37087 -2.892034,2.99258 -3.710574,5.02536 -0.798281,2.18712 -1.151671,4.47426 -1.366378,6.78305 -0.316336,3.13799 0.07612,6.27221 0.613601,9.35986 0.343528,2.38761 0.928479,4.71993 1.871948,6.93648 1.24267,2.74221 3.025844,5.19524 4.796484,7.60921 3.212995,4.25073 7.721768,6.35433 12.458705,8.449 9.485908,3.71754 19.620358,5.08583 29.684469,6.05668 5.708204,0.41766 11.489472,0.82874 17.195412,0.10353 2.34771,-0.29859 3.29347,-0.62284 5.505225,-1.21227 0.71163,-0.28355 1.44094,-0.5252 2.13486,-0.85038 0.68439,-0.32049 2.65226,-1.4537 1.99283,-1.08357 -1.52372,0.85509 -2.99199,1.82547 -4.58569,2.53891 -0.59889,0.26801 1.06355,-0.77391 1.57257,-1.19039 1.18866,-0.97227 1.48553,-1.34288 2.54111,-2.4368 2.24863,-2.64951 3.90011,-5.74278 5.59549,-8.76595 1.71735,-3.10223 3.49066,-6.18069 4.97691,-9.40622 0.46863,-1.01697 1.37342,-3.2227 1.81318,-4.2818 1.30052,-2.93021 2.39452,-5.93127 3.22177,-9.03067 0.68682,-2.52173 1.21762,-5.07476 1.53695,-7.66968 0.26174,-2.56149 0.27979,-5.13993 0.28834,-7.71249 -0.009,-2.69704 -0.014,-5.39408 0.009,-8.09111 0.002,-3.14953 0.0494,-6.30046 -0.0683,-9.44834 -0.29419,-4.00531 -1.14838,-7.92663 -1.93335,-11.85288 -0.76216,-3.68931 -1.60452,-7.35885 -2.56923,-10.99945 -0.65143,-2.02336 -1.40348,-4.0112 -2.10056,-6.01951 -0.21528,-0.71979 -0.46157,-1.4311 -0.65909,-2.15654 -0.0513,-0.18824 -0.29743,-0.45837 -0.13793,-0.56802 6.84479,-4.70676 5.20598,-6.04657 7.63738,-3.19141 3.35115,4.28885 5.99874,9.08103 8.8424,13.71601 2.47084,4.0025 5.1117,7.89322 7.66499,11.84183 0.0515,0.0706 0.70958,1.1311 1.03666,1.14169 0.18709,0 0.61147,-0.43319 0.44556,-0.34542 -1.97843,1.04521 -3.87492,2.25019 -5.88993,3.22152 -0.40821,0.19765 0.70823,-0.5699 1.03797,-0.88262 0.4316,-0.40943 0.829,-0.85391 1.24353,-1.28075 3.68075,-4.40039 7.56287,-8.61866 11.44455,-12.83692 2.63997,-2.80151 5.38971,-5.49455 8.09373,-8.23252 3.12637,-3.25777 3.45872,-3.89685 9.49447,-5.78586 0.34626,-0.10824 0.17591,0.71038 0.26402,1.06545 -0.0163,0.45202 -0.0117,0.90545 -0.0494,1.35605 -0.11137,1.33016 -0.41453,3.03728 -0.63654,4.29403 -0.60858,3.44577 -1.29618,6.85718 -2.07603,10.26719 -2.04634,7.85674 -4.77433,15.51208 -7.46241,23.16222 -1.89446,5.4322 -4.13409,10.73709 -6.07979,16.14905 -1.2048,3.3514 -1.39632,4.17801 -2.39608,7.56425 -1.55896,5.45007 -2.89217,10.9585 -3.7403,16.56765 -0.32981,2.27395 -0.4621,4.56769 -0.47922,6.86353 0,0 -6.86998,3.52412 -6.86998,3.52412 v 0 c 0.0431,-2.3709 0.21388,-4.73523 0.63819,-7.07154 0.98279,-5.68608 2.37019,-11.28722 4.02629,-16.81118 0.78844,-2.6681 1.43607,-4.999 2.37909,-7.62144 1.95138,-5.42678 4.35441,-10.68884 6.17359,-16.16762 2.65786,-7.60898 5.25747,-15.25795 7.39163,-23.03446 1.09587,-5.06489 2.1442,-10.19283 2.36372,-15.38596 0.0624,-2.98339 -0.11766,-0.37506 6.57208,-4.21308 0.17521,-0.10119 -0.36639,0.17882 -0.52339,0.30589 -0.72414,0.58873 -1.18659,1.45087 -1.92923,2.02242 -2.81617,2.77704 -5.70107,5.4842 -8.43561,8.34359 -3.84901,4.14861 -7.72966,8.2777 -11.21928,12.74586 -3.27105,3.65284 -3.00791,3.33848 -9.55113,6.536 -0.24923,0.12235 -0.56389,-0.0706 -0.8044,-0.20943 -0.41707,-0.24023 -0.82269,-1.03438 -1.03956,-1.38946 -2.36157,-4.06273 -4.79569,-8.08051 -7.30034,-12.05524 -2.81813,-4.57946 -5.54071,-9.3095 -9.17189,-13.29341 -2.63696,-1.82336 -1.26678,-0.60191 5.74842,-4.57311 0.1519,-0.0847 0.0361,0.3506 0.0743,0.52214 0.16216,0.72567 0.46383,1.41276 0.62624,2.13843 0.65925,2.04855 1.3962,4.07002 2.01342,6.13127 0.9116,3.67849 1.67635,7.38921 2.46563,11.09569 0.85016,3.9385 1.63207,7.88946 2.12076,11.89336 0.15563,3.15847 -0.0117,6.32446 0.0662,9.48598 0.03,2.6928 0.0415,5.38584 0.0247,8.07864 -0.014,2.59327 0.0186,5.19195 -0.21667,7.77722 -0.31239,2.62855 -0.85955,5.20958 -1.50014,7.77556 -0.86356,3.1641 -1.96345,6.2381 -3.35698,9.20738 -0.28097,0.66355 -1.58538,3.75612 -1.85925,4.3505 -1.47545,3.20246 -3.24203,6.25292 -4.84934,9.38645 -1.64398,3.07941 -3.32589,6.17269 -5.47887,8.92478 -3.88061,4.2451 -6.62281,5.44067 -12.267095,8.70573 -0.65914,0.38142 -1.34537,0.71719 -2.04665,1.01203 -0.6976,0.29318 -1.42815,0.49907 -2.1422,0.74873 -2.254,0.5172 -3.04396,0.76826 -5.43563,1.00003 -5.645885,0.54709 -11.33976,0.0612 -16.968553,-0.41412 -10.168894,-1.05416 -20.423829,-2.43232 -30.055867,-6.05834 -1.190586,-0.49884 -2.403685,-0.94614 -3.57176,-1.49652 -2.454201,-1.15651 -5.061035,-2.65492 -7.132275,-4.44157 -0.673014,-0.58049 -1.747607,-1.93206 -2.315647,-2.61656 -1.817847,-2.45586 -3.636374,-4.94535 -4.956942,-7.71863 -0.98728,-2.26619 -1.634626,-4.65663 -1.933999,-7.11766 -0.48744,-3.1467 -0.914786,-6.33175 -0.70805,-9.52434 0.168494,-2.35914 0.458387,-4.69922 1.223122,-6.94918 0.231913,-0.68073 0.411236,-1.29087 0.739613,-1.93207 0.687988,-1.34333 1.775504,-2.44972 2.824317,-3.50458 2.951939,-2.36338 6.408412,-4.04085 9.643007,-5.93644 0.40789,-0.23907 1.635783,-0.94874 1.228175,-0.70921 -1.771091,1.04074 -3.546663,2.07396 -5.318661,3.11306 -0.398657,0.23295 0.799087,-0.46449 1.198631,-0.69674 4.040942,-2.40667 8.054915,-4.86723 12.185956,-7.11413 0,0 -6.078823,4.911 -6.078823,4.911 z"
       inkscape:connector-curvature="0" />
    <path
       style="fill:#800000;fill-opacity:1;stroke:#f15b0d;stroke-width:3.71346688;stroke-linecap:square;stroke-linejoin:round;stroke-miterlimit:4;stroke-dasharray:none;stroke-opacity:1;paint-order:normal"
       id="path3796"
       d="m 182.07972,164.88403 c 0.16216,3.22411 0.34169,6.43882 0.69713,9.64858 0.51343,3.75284 0.9695,7.51086 1.14002,11.29663 0.12628,3.14929 0.14119,6.30187 0.14445,9.45304 -0.031,3.4293 -0.12511,6.8593 0.17497,10.27847 0.38848,3.414 1.01427,6.79718 1.55342,10.19047 0.37851,2.67939 0.76766,5.35361 1.28957,8.00899 0.34875,1.67583 0.47736,3.38507 0.7982,5.06489 0.15051,0.79815 0.0804,0.40284 0.21132,1.18592 0,0 -6.85281,3.6646 -6.85281,3.6646 v 0 c -0.11276,-0.77038 -0.0506,-0.3793 -0.18732,-1.17321 -0.3087,-1.69442 -0.39777,-3.41401 -0.71295,-5.10889 -0.48573,-2.67986 -0.88362,-5.37007 -1.22028,-8.07369 -0.25922,-1.67959 -0.47965,-3.36413 -0.76454,-5.03971 -0.014,-0.0824 -0.62374,-3.50107 -0.63537,-3.58177 -0.0773,-0.53532 -0.11672,-1.07581 -0.1752,-1.61371 -0.32243,-3.43635 -0.17917,-6.88024 -0.23042,-10.32789 3.2e-4,-3.14692 0.0163,-6.29456 -0.0925,-9.44032 -0.17986,-3.78061 -0.49167,-7.55157 -1.01192,-11.30158 -0.40283,-3.14999 -0.67488,-6.30893 -1.00733,-9.46457 0,0 6.88112,-3.66625 6.88112,-3.66625 z"
       inkscape:connector-curvature="0" />
    <path
       style="fill:#800000;fill-opacity:1;stroke:#f15b0d;stroke-width:3.71346688;stroke-linecap:square;stroke-linejoin:round;stroke-miterlimit:4;stroke-dasharray:none;stroke-opacity:1;paint-order:normal"
       id="path3798"
       d="m 182.22072,154.96392 c 3.55382,0.0918 7.10963,0.10353 10.66449,0.11059 4.89162,-0.0682 9.77718,0.0235 14.6596,0.32801 4.9839,0.23295 9.9065,1.11652 14.75812,2.25161 3.51389,0.79698 6.74696,2.41679 9.78356,4.3298 3.49122,2.24714 5.90312,5.70915 8.29025,9.04526 3.94023,5.8115 7.46965,11.8776 10.74415,18.09193 2.27428,4.39851 4.60018,8.78996 6.38235,13.42117 1.24015,3.19352 1.35822,6.66494 1.49345,10.05165 0.0976,3.04105 0.12697,6.08351 -0.0547,9.12126 -0.15144,2.1029 -0.57745,4.15121 -1.37417,6.0988 -1.00038,2.20643 -2.61753,4.03615 -4.09173,5.92657 -1.71293,2.28855 -3.71785,4.3138 -5.88754,6.15504 -4.68393,3.71095 -10.00738,6.66235 -15.62456,8.64124 -3.95495,1.31487 -8.06407,2.09349 -12.16899,2.75116 -4.46507,0.70403 -8.98953,0.78379 -13.49817,0.86168 -4.72063,0.0423 -9.44152,0.0235 -14.16228,0.0235 -5.11081,0.073 -10.18747,-0.71297 -15.23201,-1.45441 -4.03044,-0.77062 -7.97054,-1.85866 -11.85101,-3.1867 -1.87664,-0.58873 -3.52393,-1.521 -4.99145,-2.8281 -0.20106,-0.20236 -0.4022,-0.40213 -0.60329,-0.60332 0,0 6.56177,-4.07732 6.56177,-4.07732 v 0 c 0.19803,0.18824 0.39588,0.37578 0.59385,0.56355 1.39189,1.21416 2.98725,2.04289 4.72452,2.65374 3.7744,1.39558 7.63991,2.48432 11.60507,3.18176 5.02919,0.75909 10.09235,1.4897 15.19191,1.34993 4.72032,0.0235 9.44088,0.0283 14.16093,-0.0377 4.48662,-0.087 8.9842,-0.22355 13.42424,-0.94074 4.10269,-0.69909 8.20184,-1.54311 12.14463,-2.9074 1.72401,-0.65226 1.94839,-0.69321 3.61549,-1.50194 0.56394,-0.27341 2.2003,-1.20075 1.66893,-0.86709 -9.531,5.98209 -4.57944,2.76552 -2.60019,1.24851 2.17744,-1.79582 4.24371,-3.72506 5.94564,-6.00091 1.42702,-1.85112 3.01024,-3.62083 4.07864,-5.71785 0.90209,-1.84665 1.35019,-3.84437 1.56421,-5.88797 0.24179,-3.02411 0.23305,-6.05103 0.16192,-9.08361 -0.11113,-3.31612 -0.23806,-6.68565 -1.37162,-9.83823 -1.68611,-4.64392 -3.79026,-9.11655 -6.03014,-13.5127 -3.26213,-6.17975 -6.72134,-12.26302 -10.83185,-17.91663 -2.40932,-3.23588 -4.89523,-6.4967 -8.3382,-8.67984 -2.96882,-1.85936 -6.11052,-3.418 -9.54249,-4.19474 -4.80733,-1.14804 -9.68105,-2.00312 -14.62875,-2.18784 -4.88053,-0.27766 -9.76492,-0.31977 -14.65257,-0.27836 -3.65562,0 -7.31205,0.0235 -10.96671,0.11059 0,0 6.28489,-4.61169 6.28489,-4.61169 z"
       inkscape:connector-curvature="0" />
    <path
       style="fill:#800000;fill-opacity:1;stroke:#f15b0d;stroke-width:3.71346688;stroke-linecap:square;stroke-linejoin:round;stroke-miterlimit:4;stroke-dasharray:none;stroke-opacity:1;paint-order:normal"
       id="path3800"
       d="m 287.43044,164.1386 c -0.35134,7.85321 -0.43111,15.71278 -0.39139,23.57283 0.17217,12.17289 1.24395,24.31685 2.57431,36.41021 0.85638,7.75251 2.17961,15.43372 3.57158,23.10199 0.44975,2.22173 0.66799,4.49498 1.2703,6.68306 0,0 -6.77124,3.70555 -6.77124,3.70555 v 0 c -0.5409,-2.2655 -0.68335,-4.59947 -1.01458,-6.90119 -1.09878,-7.79769 -2.30911,-15.58196 -3.04345,-23.42718 -1.22044,-12.13008 -2.30321,-24.29191 -2.56779,-36.48669 -0.12348,-7.70568 -0.16658,-15.41395 -0.51687,-23.11328 0,0 6.88913,-3.5453 6.88913,-3.5453 z"
       inkscape:connector-curvature="0" />
    <path
       style="fill:#800000;fill-opacity:1;stroke:#f15b0d;stroke-width:3.71346688;stroke-linecap:square;stroke-linejoin:round;stroke-miterlimit:4;stroke-dasharray:none;stroke-opacity:1;paint-order:normal"
       id="path3802"
       d="m 272.53164,149.93621 c 5.90592,-1.46428 12.01732,-1.69982 18.06144,-2.06313 7.13328,-0.29813 14.2755,-0.51531 21.41469,-0.28518 4.08312,0.13176 6.87981,0.36636 10.94089,0.65226 6.42786,0.53977 12.8589,1.68664 19.02972,3.61635 3.39474,1.06169 5.22408,1.88878 8.49506,3.226 7.02937,2.81916 13.42105,6.99672 19.30991,11.747 4.02681,3.35706 7.43056,7.36591 10.3413,11.7263 1.93426,2.90975 3.28284,6.12492 4.46093,9.40315 0.63304,1.65182 0.84969,3.38224 0.90274,5.13807 0.0398,2.66103 -0.60608,5.2936 -1.41994,7.80734 -0.62922,2.209 -1.68956,4.18366 -3.10832,5.96607 -1.06797,1.29981 -2.41359,2.29679 -3.85288,3.13988 -7.70839,4.51498 -5.24424,3.27941 -9.40682,5.28512 -4.02275,1.92525 -8.35765,2.88646 -12.68426,3.81332 -6.4545,1.45981 -13.09091,1.76782 -19.67679,2.08642 -5.12567,0.21648 -10.25715,0.24848 -15.3866,0.29131 -3.81343,0.10589 -7.61758,-0.1906 -11.41375,-0.51696 -3.77905,-0.20942 -7.32031,-1.46947 -10.88527,-2.62738 -2.57382,-0.85698 -5.04972,-1.96972 -7.56949,-2.96576 -1.37712,-0.59908 -2.696,-1.36852 -3.91723,-2.24666 -1.63089,-1.31088 -3.38843,-2.41327 -5.25633,-3.34389 -1.26422,-0.65697 -2.50127,-1.37064 -3.78439,-1.98925 -0.91933,-0.50331 -1.77564,-1.14922 -2.51136,-1.90053 -0.71183,-0.68332 -1.5091,-1.23464 -2.35109,-1.74054 -0.48374,-0.30401 -0.84188,-0.6859 -1.17738,-1.14145 0,0 6.68529,-4.00907 6.68529,-4.00907 v 0 c 0.28221,0.37107 0.61464,0.65696 1.01253,0.90262 0.86796,0.56284 1.72916,1.13675 2.46352,1.8756 0.70212,0.67436 1.47647,1.28262 2.3524,1.70993 1.25352,0.65649 2.48787,1.34946 3.72183,2.04242 1.86147,1.00404 3.64172,2.13514 5.34025,3.40036 1.21937,0.78943 2.47352,1.55347 3.8078,2.12736 2.44353,1.05487 4.85764,2.1862 7.38911,3.02059 3.51398,1.17227 7.05739,2.25937 10.77836,2.49208 3.78482,0.3426 7.57557,0.51531 11.37682,0.46237 5.04942,0.04 10.09995,0.0353 15.14686,-0.15765 6.60612,-0.29554 13.24239,-0.70215 19.69729,-2.25726 4.3499,-0.9918 8.7026,-2.05537 12.72123,-4.07214 3.24873,-1.66029 2.40155,-1.26805 -3.54557,2.22243 -0.41187,0.24166 0.82061,-0.48896 1.22607,-0.74144 0.97313,-0.60613 1.87921,-1.26475 2.64468,-2.13325 0.12418,-0.14589 1.20427,-1.41605 1.31398,-1.57441 0.87597,-1.26475 1.45718,-2.72362 1.97135,-4.16485 0.84715,-2.40572 1.52369,-4.93546 1.44967,-7.51037 -0.0615,-1.68336 -0.19058,-3.36106 -0.73147,-4.97029 -1.04128,-3.27047 -2.32386,-6.44235 -4.18344,-9.33868 -2.80543,-4.33663 -6.19447,-8.24383 -10.10226,-11.60983 -5.74882,-4.78934 -12.01986,-8.91561 -18.96973,-11.71523 -1.3583,-0.55861 -2.70012,-1.15981 -4.07489,-1.67583 -7.43728,-2.79068 -15.27957,-4.40768 -23.17344,-5.09241 -4.70276,-0.34025 -6.14542,-0.49438 -10.90049,-0.63414 -7.17227,-0.21177 -14.35119,0.0259 -21.51263,0.42542 -6.24083,0.43696 -12.55582,0.8478 -18.58801,2.65022 0,0 6.12811,-4.75335 6.12811,-4.75335 z"
       inkscape:connector-curvature="0" />
  </g>
</svg>
